<?xml version="1.0" encoding="utf-8"?>
<svg xmlns="http://www.w3.org/2000/svg" height="36px" width="36px" fill="#000" viewBox="0 -960 960 960" xmlns:bx="https://boxy-svg.com">
  <path d="M 480 0 C 346.67 0 233.335 -46.664 139.994 -139.994 C 46.664 -233.335 0 -346.67 0 -480 C 0 -613.33 46.664 -726.665 139.994 -820.004 C 233.335 -913.334 346.67 -960 480 -960 C 559.67 -960 631.334 -943.75 694.994 -911.25 C 758.665 -878.75 813.665 -833.665 859.994 -775.994 L 859.994 -960 L 960 -960 L 960 -565.994 L 565.994 -565.994 L 565.994 -666 L 817.994 -666 C 781.994 -724.67 735.08 -771.67 677.25 -807 C 619.42 -842.33 553.67 -859.994 480 -859.994 C 374 -859.994 284.165 -823.165 210.494 -749.506 C 136.835 -675.835 100.004 -586 100.004 -480 C 100.004 -374 136.835 -284.165 210.494 -210.496 C 284.165 -136.835 374 -100.004 480 -100.004 C 561 -100.004 634.835 -123.17 701.504 -169.5 C 768.164 -215.83 814.664 -276.995 841.004 -352.994 L 945 -352.994 C 916.33 -247.666 858.995 -162.5 772.994 -97.5 C 686.995 -32.5 589.33 0 480 0 Z" style="fill: rgb(255, 255, 255);"/>
  <defs>
    <bx:grid x="0" y="0" width="64" height="64"/>
  </defs>
</svg>