<?xml version="1.0" encoding="utf-8"?>
<svg viewBox="0 0 256 256" xmlns="http://www.w3.org/2000/svg" xmlns:bx="https://boxy-svg.com">
  <defs>
    <bx:grid x="0" y="0" width="1" height="1"/>
  </defs>
  <path d="M 126 64 C 126 81.264 119.191 96.533 107.84 107.842 C 96.53 119.195 81.264 126 64 126 C 46.736 126 31.467 119.191 20.158 107.84 C 8.805 96.53 2 81.264 2 64 C 2 46.736 8.809 31.467 20.16 20.158 C 31.47 8.805 46.736 2 64 2 C 81.264 2 96.533 8.809 107.842 20.16 C 119.195 31.47 126 46.736 126 64 Z" style="fill: none; paint-order: fill; stroke-width: 4px;"/>
  <path d="M 254 128 C 254 162.79 239.846 194.24 217.092 217.096 C 194.234 239.854 162.79 254 128 254 C 93.21 254 61.76 239.846 38.904 217.092 C 16.146 194.234 2 162.79 2 128 C 2 93.21 16.154 61.76 38.908 38.904 C 61.766 16.146 93.21 2 128 2 C 162.79 2 194.24 16.154 217.096 38.908 C 239.854 61.766 254 93.21 254 128 Z M 211.536 44.478 C 189.866 22.538 161.186 9.876 128 9.876 C 94.814 9.876 66.152 22.524 44.478 44.464 C 22.538 66.135 9.876 94.814 9.876 128 C 9.876 161.186 22.524 189.848 44.464 211.522 C 66.135 233.462 94.814 246.124 128 246.124 C 161.186 246.124 189.848 233.476 211.522 211.536 C 233.462 189.866 246.124 161.186 246.124 128 C 246.124 94.814 233.476 66.152 211.536 44.478 Z" style="stroke: rgb(205, 205, 205); fill: none; stroke-width: 4px;"/>
</svg>