<?xml version="1.0" encoding="utf-8"?>
<svg viewBox="0 0 128 128" xmlns="http://www.w3.org/2000/svg" xmlns:bx="https://boxy-svg.com">
  <defs>
    <bx:grid x="0" y="0" width="4" height="4"/>
  </defs>
  <path d="M 57.986 22.597 C 57.986 31.44 50.743 38.607 41.808 38.607 C 32.874 38.607 25.63 31.44 25.63 22.597 C 25.63 13.755 32.874 6.588 41.808 6.588 C 50.743 6.588 57.986 13.755 57.986 22.597 Z M 41.808 0.823 C 29.656 0.823 19.805 10.57 19.805 22.597 C 19.805 34.622 29.656 44.371 41.808 44.371 C 53.96 44.371 63.812 34.622 63.812 22.597 C 63.812 10.57 53.96 0.823 41.808 0.823 Z" style=""/>
  <path style="" d="M 75.121 127.176 C 75.121 127.176 67.891 115.525 64.871 114.459 C 60.996 113.091 59.727 112.569 54.213 109.98 C 48.699 107.39 40.734 95.884 34.969 90.537 C 29.204 85.191 18.044 76.707 17.029 75.586 C 16.014 74.465 13.445 71.897 15.844 68.732 C 17.921 65.992 20.847 66.218 24.652 67.1 C 28.457 67.982 36.25 73.353 36.25 73.353 C 36.25 73.353 45.454 82.324 48.21 82.324 C 50.967 82.324 52.889 79.816 52.533 78.18 C 51.967 75.583 47.13 56.656 43.641 48.07 C 40.151 39.484 32.302 20.517 41.077 18.077 C 48.062 16.135 52.112 32.471 57.062 44.455 C 62.012 56.44 62.772 61.407 63.787 61.061 C 64.903 60.679 59.797 48.487 59.006 46.068 C 58.876 45.67 58.862 44.984 58.839 44.839 C 58.506 42.867 60.235 39.357 63.793 38.771 C 68.67 37.968 70.678 43.281 71.359 45.347 C 71.346 45.344 71.334 45.344 71.327 45.344 C 71.327 45.344 76.703 62.199 77.776 61.731 C 77.984 61.639 73.215 47.376 72.63 45.631 C 72.62 45.539 72.607 45.443 72.591 45.344 C 72.239 43.014 72.781 39.801 76.672 39.088 C 81.678 38.171 82.979 42.387 83.486 43.839 C 83.617 44.213 83.757 44.542 83.897 44.827 C 84.895 47.979 89.419 62.087 90.398 61.74 C 90.702 61.631 85.73 47.357 85.282 46.07 C 85.279 46.029 85.271 45.984 85.258 45.934 C 84.721 43.854 84.202 41.375 88.967 39.766 C 94.079 38.039 96.669 45.024 97.412 46.853 C 98.808 50.29 100.919 54.866 102.588 59.201 C 104.259 63.537 109.796 76.671 111.595 88.799 C 113.395 100.927 112.632 103.255 111.003 106.245 C 109.375 109.235 110.868 117.802 110.868 117.802 L 75.121 127.176 Z"/>
</svg>